<?xml version="1.0" encoding="UTF-8"?>
<svg  xmlns="http://www.w3.org/2000/svg" xmlns:xlink="http://www.w3.org/1999/xlink" version="1.1" viewBox="0 0 100 125">
  <!-- Generator: Adobe Illustrator 29.2.1, SVG Export Plug-In . SVG Version: 2.1.0 Build 116)  -->
  <path d="M36,46.4c.1,0,.2,0,.3,0,.6,0,1.2-.4,1.3-1,.2-.7-.3-1.5-1-1.6-.7-.2-1.5.3-1.6,1-.2.7.3,1.5,1,1.6ZM35.8,44.9c0-.3.3-.5.6-.5s.1,0,.2,0c.3,0,.5.4.5.8,0,.3-.4.5-.8.5-.3,0-.5-.4-.5-.8Z"/>
  <path d="M36.6,40.1c.1,0,.2,0,.3,0,.6,0,1.2-.4,1.3-1,.2-.7-.3-1.5-1-1.6-.7-.2-1.5.3-1.6,1,0,.3,0,.7.1,1,.2.3.5.5.8.6ZM36.4,38.7c0-.3.3-.5.6-.5s.1,0,.2,0c.3,0,.5.4.5.8,0,.3-.4.5-.8.5-.2,0-.3-.1-.4-.3,0-.1-.1-.3,0-.5Z"/>
  <path d="M42.9,39.3c.1,0,.2,0,.3,0,.6,0,1.2-.4,1.3-1,0-.3,0-.7-.2-1-.2-.3-.5-.5-.8-.6-.7-.2-1.5.3-1.6,1,0,.3,0,.7.1,1,.2.3.5.5.8.6ZM42.6,37.8c0-.3.3-.5.6-.5s.1,0,.2,0c.2,0,.3.1.4.3s.1.3,0,.5c0,.3-.4.5-.8.5-.2,0-.3-.1-.4-.3,0-.1-.1-.3,0-.5Z"/>
  <path d="M46.4,40.4s0,0,.1,0c.2,0,.3,0,.3-.3l.2-.5c0-.2,0-.4-.2-.4-.2,0-.4,0-.4.2l-.2.5c0,.2,0,.4.2.4Z"/>
  <path d="M35.5,51.5c1.2,0,2.1-.3,2.1-.3,3.6-1.2,6.3-4,8.3-8.3,0-.2,0-.4-.2-.5-.2,0-.4,0-.5.2-1.8,4.2-4.5,6.8-7.8,7.9,0,0-1.7.5-3.4,0-1.7-.4-2.8-1.6-2.8-1.6-.1-.1-.4-.2-.5,0-.1.1-.2.4,0,.5,0,0,1.3,1.4,3.1,1.8.6.1,1.1.2,1.7.2Z"/>
  <path d="M14.8,76.7v.6c-.9,3.1,8.1,5.6,10.9,6.3,3.3.8,6.5,1.3,8.7,1.3s3.5-.2,3.9-1.6l.2-.6-.5-.4c-1.5-1.5-4.7-3.9-9.1-7.2l5-19.9c.4,0,.8,0,1.3,0h0c1.5,0,2.6-.3,2.7-.3,17.5-5.1,14.2-36.2,14.1-37.6v-.7c0,0-17.8-4.4-17.8-4.4l-.4.6c-.8,1.1-18.3,27-5.3,39.8,0,0,1.3,1.4,3.4,2.1l-5,19.9c-5,.7-9.6,1.4-11.5,2.1l-.5.2ZM35.1,14.5l14.8,3.7c.1,1.8.4,6.7,0,12.3-2.1-.9-5.2.6-7,1.6h0c-2.9,1.6-7.7,2.1-11.3-.7-3.2-2.5-2.5-5.2-2.5-5.3,0,0,0,0,0,0,2.2-5.5,5-9.9,6-11.5ZM27.6,30c.5,1,1.3,2,2.6,3,2.2,1.8,4.9,2.5,7.4,2.5s4.6-.6,6.3-1.6c0,0,0,0,0,0,0,0,0,0,0,0,2.6-1.5,4.6-1.9,5.2-1.4.3.2.3.7.3,1.2-1.2,8.1-4.4,16.8-12.2,19,0,0-.9.2-2.1.2s-1.3,0-1.9-.2c-2-.5-3.3-1.8-3.3-1.9-5.4-5.3-4.7-13.5-2.3-20.9ZM27.4,76.5c3.1,2.3,6,4.6,7.9,6.1-.2,0-.6,0-.9,0-2.1,0-5.1-.4-8.2-1.2-4.5-1.1-7.4-2.4-8.7-3.3,2.3-.5,6.3-1.1,9.9-1.7Z"/>
  <path d="M30.8,81.3c0,0,.1,0,.2,0s.2,0,.3-.1c.1-.2,0-.4,0-.5l-3.5-2.7c-.2-.1-.4,0-.5,0-.1.2,0,.4,0,.5l3.5,2.7Z"/>
  <path d="M34.5,18.7s0,0,.1,0c.1,0,.3,0,.3-.2,0-.3.7-1.4,1.1-2,.1-.2,0-.4-.1-.5-.2-.1-.4,0-.5.1-.1.2-1,1.7-1.2,2.1,0,.2,0,.4.2.5Z"/>
  <path d="M67.5,54c0-.7-.8-1.3-1.5-1.2-.7,0-1.3.8-1.2,1.5,0,.7.7,1.2,1.3,1.2s.1,0,.2,0c.4,0,.7-.2.9-.5.2-.3.3-.6.3-1ZM66.7,54.5c-.1.1-.2.2-.4.2-.4,0-.7-.2-.7-.5,0-.3.2-.7.6-.7.3,0,.6.2.6.5,0,.2,0,.3-.1.5Z"/>
  <path d="M66.3,49.2h0c0,0,.1,0,.2,0,.7,0,1.3-.8,1.2-1.5,0-.7-.8-1.3-1.5-1.2-.7,0-1.3.8-1.2,1.5,0,.7.7,1.2,1.3,1.2ZM66.3,47.2c.3,0,.6.2.6.5,0,.3-.2.7-.5.7-.4,0-.7-.2-.7-.5,0-.3.2-.7.6-.7Z"/>
  <path d="M60,45c-.4,0-.7.2-.9.5-.2.3-.3.6-.3,1,0,.7.7,1.2,1.3,1.2s.1,0,.2,0c.7,0,1.3-.8,1.2-1.5,0-.7-.8-1.3-1.5-1.2ZM60.3,46.9s0,0,0,0c-.3,0-.6-.2-.6-.5,0-.2,0-.3.1-.5.1-.1.2-.2.5-.2.3,0,.6.2.6.5,0,.3-.2.7-.5.7Z"/>
  <path d="M65.5,62.3c0,0,1.7.7,3.8.7s.1,0,.2,0l2.7,20.3c-4.2,2.4-8.4,4.8-9.9,6.2l-.4.4v.6c.2,1,1,2.2,6.6,2.2s3.9-.1,6-.4c3-.4,5.8-1,7.9-1.8,1.7-.6,3.9-1.6,3.7-3.2v-.6c0,0-.7-.2-.7-.2-2.1-.8-6.5-2.1-11.1-3.4l-2.7-20.4c2.1-.5,3.5-1.6,3.6-1.7,14.4-11.2,0-38.9-.7-40.1l-.3-.7-18.1,2.4-.2.7c-.3,1.3-7.1,31.9,9.7,38.9ZM74.1,90.2c-2,.3-4,.4-5.8.4s-2.8-.1-3.5-.3c2-1.4,5.4-3.3,8.6-5.2,3.7,1,7.3,2,9.6,2.8-1.4.7-4.4,1.7-8.9,2.2ZM73.8,59.4s-1.6,1.2-3.7,1.5c-.3,0-.6,0-.9,0-1.6,0-2.9-.5-2.9-.6-6.8-2.9-9.2-10.5-9.8-18,0-.9.1-1.6.5-1.7.7-.3,2.6.3,5.1,2.2,0,0,0,0,0,0,0,0,0,0,0,0,2,1.5,4.8,2.6,7.8,2.6s4.2-.5,6.1-1.8c1.3-.8,2.2-1.8,2.8-2.7,1.1,7,.4,14.2-5.1,18.5ZM57.7,24.6l15.1-2c.9,1.9,3.5,7.4,5.1,13.8,0,0,0,0,0,0,0,.1.5,3-3.1,5.3-3.9,2.5-8.7,1.4-11.4-.7t0,0c-1.7-1.3-4.8-3.3-7-2.5,0-6.3,1-12,1.4-14Z"/>
  <path d="M77.8,44.6s0,0,0,0c.2,0,.3-.2.3-.4v-.5c0-.2-.2-.3-.4-.3-.2,0-.3.2-.3.4v.5c0,.2.2.3.4.3Z"/>
  <path d="M77.9,46.7c-.2,0-.4.1-.4.3-.2,4.5-1.6,8-4.4,10.2,0,0-1.3,1.1-3.1,1.3-1.7.2-3.2-.5-3.2-.5-.2,0-.4,0-.5.2s0,.4.2.5c0,0,1.2.6,2.8.6s.5,0,.8,0c2-.3,3.4-1.4,3.5-1.5,2.9-2.4,4.4-6,4.6-10.8,0-.2-.1-.4-.3-.4Z"/>
  <path d="M74,87.1l4.3,1.2s0,0,0,0c.2,0,.3-.1.3-.3,0-.2,0-.4-.2-.4l-4.3-1.2c-.2,0-.4,0-.4.2,0,.2,0,.4.2.4Z"/>
  <path d="M58.7,28.7h0c.2,0,.4-.2.3-.4,0-.3.2-1.5.3-2.3,0-.2,0-.4-.3-.4-.2,0-.4,0-.4.3,0,.2-.3,2-.3,2.4,0,.2.2.4.4.4Z"/>
  <path d="M55.4,16.9c.2,0,.3-.1.3-.3l1.2-4.1c0-.2,0-.4-.2-.4-.2,0-.4,0-.4.2l-1.2,4.1c0,.2,0,.4.2.4,0,0,0,0,0,0Z"/>
  <path d="M58.6,19.7s0,0,.1,0l4.7-2.1c.2,0,.3-.3.2-.5,0-.2-.3-.3-.5-.2l-4.7,2.1c-.2,0-.3.3-.2.5,0,.1.2.2.3.2Z"/>
  <path d="M51.3,13.8v-2.7c0-.2-.2-.4-.4-.4s-.4.2-.4.4v2.7c0,.2.2.4.4.4.2,0,.4-.2.4-.4Z"/>
</svg>