<?xml version="1.0" encoding="UTF-8"?>
<svg id="Livello_1" xmlns="http://www.w3.org/2000/svg" version="1.1" viewBox="0 0 24 17.8">
  <!-- Generator: Adobe Illustrator 29.1.0, SVG Export Plug-In . SVG Version: 2.1.0 Build 142)  -->
  <defs>
    <style>
      .st0 {
        fill: #fff;
      }
    </style>
  </defs>
  <path class="st0" d="M16,5c-3.4,0-6.1,2.7-6.1,6.1s0,.1,0,.2c.3,0,.6-.2.8-.3,0-2.9,2.4-5.2,5.3-5.2s5.3,2.4,5.3,5.3-2.4,5.3-5.3,5.3-3.8-1.1-4.7-3c-.3.1-.5.2-.8.3,1,2.1,3.1,3.5,5.5,3.5,3.4,0,6.1-2.7,6.1-6.1s-2.7-6.1-6.1-6.1Z"/>
  <path class="st0" d="M14.8,7.1c0,0,0-.1,0-.2-.3,0-.6.2-.8.3,0,2.9-2.4,5.2-5.3,5.2s-5.3-2.4-5.3-5.3S5.8,1.8,8.7,1.8s3.8,1.2,4.7,2.9c.3-.1.5-.2.8-.3-1-2.1-3.1-3.5-5.5-3.5C5.4,1,2.6,3.7,2.6,7.1s2.7,6.1,6.1,6.1,6.1-2.7,6.1-6.1Z"/>
</svg>